<svg xmlns="http://www.w3.org/2000/svg" viewBox="0 0 512 512" role="img" aria-labelledby="title">
  <title id="title">HUDL Logo</title>
  <circle cx="256" cy="256" r="220" fill="#ff7300"/>
  <g fill="#fff">
    <path d="M185 176c34-19 74-19 108 0 19 11 35 27 45 46-28-17-61-26-93-26-21 0-41 4-60 11-10 4-21 1-28-7-8-10-6-19 28-24z"/>
    <path d="M355 189c25 29 35 69 26 107-6 23-18 44-36 60 10-31 11-65 2-96-6-20-16-39-29-55-7-8-8-20-2-29 8-11 18-13 39 13z"/>
    <path d="M339 369c-37 12-78 5-109-18-19-14-34-33-43-55 25 21 56 35 88 40 21 3 42 2 62-3 11-3 22 2 28 12 6 12 2 21-26 24z"/>
    <path d="M159 328c-17-35-16-76 2-110 11-21 28-38 49-49-17 28-26 61-26 94 0 21 4 42 11 61 4 10 1 22-8 29-10 8-19 5-28-25z"/>
  </g>
</svg>
